<?xml version="1.0" encoding="UTF-8"?>
<svg id="Layer_2" data-name="Layer 2" xmlns="http://www.w3.org/2000/svg" xmlns:xlink="http://www.w3.org/1999/xlink" viewBox="0 0 3072 3072">
  <defs>
    <style>
      .cls-1 {
        fill: url(#linear-gradient);
      }

      .cls-2 {
        fill: #4a2480;
      }

      .cls-3 {
        fill: #529aed;
      }

      .cls-4 {
        fill: #492581;
      }

      .cls-5 {
        fill: #fefefe;
      }

      .cls-6 {
        fill: #2e1348;
      }

      .cls-7 {
        fill: #2e1346;
      }
    </style>
    <linearGradient id="linear-gradient" x1="633.76" y1="116.43" x2="2430.57" y2="2962.73" gradientUnits="userSpaceOnUse">
      <stop offset="0" stop-color="#40b5f2"/>
      <stop offset=".17" stop-color="#41b0f2"/>
      <stop offset="1" stop-color="#943ee7"/>
    </linearGradient>
  </defs>
  <g id="Layer_1-2" data-name="Layer 1">
    <g id="Generative_Object" data-name="Generative Object">
      <g>
        <path class="cls-7" d="M2322,0c230.97,5.68,455.87,130.69,595.3,316.64,95.16,126.91,153,286.47,154.7,440.86v1593c-5.57,209.23-112.58,411.43-274.58,545.73-125.96,104.42-289.6,173.3-451.42,175.77H724.5c-232.3-5.89-458.51-138.19-591.67-330.22C52.9,2626.53,2.02,2485.84,0,2347.5L.26,756.27c.91-119.87,36.37-240.34,93.78-345.15,70.56-128.8,178.64-237.83,306.36-310.55C505.42,40.79,626,1.98,747.25.14l1574.75-.14Z"/>
        <path class="cls-1" d="M774.71,127.61c498.95-1.42,1018.81-1.43,1517.9,0,55.92,0,112.27,12.43,165.49,28.96,99.05,30.76,188.7,83.65,265.05,153.24,27.16,24.75,51.03,51.73,74.46,80.4,99.88,122.22,152.84,280.65,152.84,439.59l.07,1472.07c-6.19,102.12-31.08,200.22-80.35,289.45-27.01,52.75-62.83,99.57-102.64,142.98l-24.26,24.17c-45.09,44.93-97.33,81.47-153.78,111.57-92.83,49.51-195.01,76.41-300.8,80.43l-1490.4-.04c-58.13,0-116.2-8.55-171.76-23.63-110.72-30.04-211.87-86.69-294.73-165.58-52.94-50.4-97.77-108-131.76-172.69-29.63-56.39-51.74-114.59-64.34-177.25-8.88-44.19-15.53-88.89-15.55-134.62l-.35-938.57-.14-481.34c-.02-54.84,3.3-107.87,13.46-161.51,24.56-129.75,85.78-250.57,176.3-346.79,85.72-91.12,193.42-158.84,313.39-194.87,48.88-14.68,100.66-25.99,151.87-25.99Z"/>
        <g>
          <path class="cls-3" d="M2292.61,127.62H774.71c-.12-1.02.27-1.63,2.72-1.63h1511.14c2.45,0,2.88.61,4.04,1.63Z"/>
          <g>
            <g>
              <circle class="cls-4" cx="2441.87" cy="715" r="187.73"/>
              <circle class="cls-2" cx="2651" cy="1112.66" r="122.85"/>
            </g>
            <g>
              <path class="cls-5" d="M754.08,683.08c-34.97,35.4-64.34,73.5-91.03,114.82-10.06,15.57-20.12,29.34-33.55,41.35-40.23,35.99-96.24,43.01-143.66,17.41-23.18-12.51-40.9-29.92-52.85-53.73-17.34-34.54-19.86-73.99-3.51-109.7,14.66-32.03,31.73-61.55,51.61-90.66,22.84-33.44,46.37-64.43,73.93-94.09l52.53-52.54c56.45-51.07,118.43-94.81,185.9-130.4,80.51-42.47,180.49-76.54,271.58-79.5,25.04-.81,49.62,4.12,70.7,17.72,41.13,26.52,58.99,75.98,45.74,123.38-7.94,28.41-27.31,51.43-52.39,66.87-9.07,5.58-18.49,11.17-28.22,14.46l-25.49,8.61c-30.17,10.19-58.95,22.07-87.38,36.87-19.06,9.92-37.24,18.61-55.86,29.6-52.32,30.89-118.9,79.64-161.08,122.35l-16.98,17.19Z"/>
              <circle class="cls-5" cx="398.2" cy="1098.17" r="115.18"/>
            </g>
          </g>
          <g>
            <path class="cls-6" d="M1809.79,2663.18c-147.91,36.06-308.26,32.47-454.33-10.65-192.93-56.94-341.72-164.54-460.45-325.21l-5.97-8.07c-92.8-134.55-141.09-284.53-144.64-448.72-.9-41.6,2.69-81.47,7.76-122.42l1.42-16.97,3.31-16.28c1.2-5.91,3.96-11.82,1.88-18.13-1.54-4.66-5.72-3.38-9.11-4.46l-15.9-5.08c-14.92-4.76-30.15-9.1-41.45-19.64-19.1-17.81-26.95-40.95-25.24-66.86.6-9.12,3.94-18.25,8.54-26.77,17.5-32.45,54.31-46.09,89.97-36.84,105.05,27.26,209.6,52.44,316.34,71.78l9.31,1.69c153.74,29.88,308.84,51.44,465.18,67.19,165.44,16.67,330.75,27.12,496.79,30.91l127.95.09c86.1.06,170.49-5.47,256.11-12.93,27.39-2.39,52.68,4.93,69.93,25.14,17.45,20.45,22.9,48.31,14.1,74.31-10.05,29.67-35.75,49.9-67.09,51.61-1.46.08-2.13,1.03-2.11,2.72,1.26,124.79-23.63,246.62-78.31,359.4-42.51,87.68-100.06,167.08-169.27,235.08l-22.77,21.36c-39.9,37.44-84.09,69.55-131.29,97.97-75.15,45.25-155.24,78.95-240.64,99.77Z"/>
            <path class="cls-5" d="M2304.38,1858.51c4.22,203.01-86.28,389.2-239.54,519.77-72.51,61.77-155.92,107.73-246.99,135.74-97.62,30.02-199.68,39.08-301.3,26.85-79.66-9.59-156.67-30.37-229.03-65.02-71.65-34.32-137.67-79.68-194.35-135.49-53.48-52.66-96.79-114.34-131.11-180.76-30.1-62.16-51.14-126.7-61.67-195.01-11.46-78.33-9.67-156.82,6.32-235.36,92.83,19.99,185.35,38.49,279.73,54.05-27.58,156.72,23.74,305.18,133.73,417.1,42.02,42.15,90.86,76.15,145.39,100.63,124.62,55.95,268.93,57.15,394.37,2.94,77.35-33.43,143.45-86.8,194.35-153.61,44.46-58.4,75.2-125.13,89.26-197.15,5.74-30.88,8.73-60.44,7.51-91.07l153.33-3.58Z"/>
            <circle class="cls-5" cx="1926.38" cy="1946.7" r="95.36"/>
          </g>
        </g>
      </g>
    </g>
  </g>
</svg>