<?xml version="1.0" encoding="UTF-8"?>
<svg id="Layer_2" data-name="Layer 2" xmlns="http://www.w3.org/2000/svg" xmlns:xlink="http://www.w3.org/1999/xlink" viewBox="200 20 2584 3052">
  <defs>
    <style>
      .cls-bg { fill: none; }
      .cls-1 {
        fill: #f1f1f1;
      }

      .cls-2 {
        fill: #8957e8;
      }

      .cls-3 {
        fill: #8f69e7;
      }

      .cls-4 {
        fill: #8766e8;
      }

      .cls-5 {
        fill: #8463e7;
      }

      .cls-6 {
        fill: #7c8be8;
      }

      .cls-7 {
        fill: #0e1a45;
      }

      .cls-8 {
        fill: url(#linear-gradient-5);
      }

      .cls-9 {
        fill: url(#linear-gradient-4);
      }

      .cls-10 {
        fill: url(#linear-gradient-3);
      }

      .cls-11 {
        fill: url(#linear-gradient-2);
      }

      .cls-12 {
        fill: #101b46;
      }

      .cls-13 {
        fill: #0f1b47;
      }

      .cls-14 {
        fill: #6d64d7;
      }

      .cls-15 {
        fill: #f3f2f3;
      }

      .cls-16 {
        fill: #101b47;
      }

      .cls-17 {
        fill: #e8f5f9;
      }

      .cls-18 {
        fill: url(#linear-gradient);
      }

      .cls-19 {
        fill: #f0f0f1;
      }

      .cls-20 {
        fill: #8f6ae6;
      }

      .cls-21 {
        fill: #604bb8;
      }

      .cls-22 {
        fill: #a98eeb;
      }

      .cls-23 {
        fill: #92cef0;
      }

      .cls-24 {
        fill: #f1f2f2;
      }

      .cls-25 {
        fill: #caf0fb;
      }

      .cls-26 {
        fill: #7455d6;
      }

      .cls-27 {
        fill: #7ec6ee;
      }

      .cls-28 {
        fill: #f1f1f2;
      }

      .cls-29 {
        fill: #ebf6f9;
      }

      .cls-30 {
        fill: #f1f4f5;
      }

      .cls-31 {
        fill: #8a5be8;
      }

      .cls-32 {
        fill: #f0f8fb;
      }

      .cls-33 {
        fill: #0f1c48;
      }

      .cls-34 {
        fill: #8b5be6;
      }

      .cls-35 {
        fill: #0f1a46;
      }

      .cls-36 {
        fill: #5d4cb6;
      }

      .cls-37 {
        fill: #eef6f9;
      }

      .cls-38 {
        fill: #e8f6f9;
      }

      .cls-39 {
        fill: #fefefe;
      }

      .cls-40 {
        fill: #f2f2f2;
      }

      .cls-41 {
        fill: #edf7f9;
      }

      .cls-42 {
        fill: #def3fc;
      }

      .cls-43 {
        fill: #93aaed;
      }

      .cls-44 {
        fill: #8e6fea;
      }

      .cls-45 {
        fill: #eaf5f7;
      }

      .cls-46 {
        fill: #8e6ce7;
      }
    </style>
    <linearGradient id="linear-gradient" x1="335.24" y1="1645.83" x2="497.86" y2="1473.43" gradientTransform="translate(0 3072) scale(1 -1)" gradientUnits="userSpaceOnUse">
      <stop offset="0" stop-color="#91d2f2"/>
      <stop offset=".42" stop-color="#79beef"/>
      <stop offset="1" stop-color="#8575e2"/>
    </linearGradient>
    <linearGradient id="linear-gradient-2" x1="625.03" y1="1967.79" x2="729.69" y2="1850.09" gradientTransform="translate(0 3072) scale(1 -1)" gradientUnits="userSpaceOnUse">
      <stop offset="0" stop-color="#80c9f0"/>
      <stop offset=".36" stop-color="#7ac1ee"/>
      <stop offset="1" stop-color="#887be4"/>
    </linearGradient>
    <linearGradient id="linear-gradient-3" x1="783.7" y1="1666.85" x2="831.6" y2="1611.11" gradientTransform="translate(0 3072) scale(1 -1)" gradientUnits="userSpaceOnUse">
      <stop offset="0" stop-color="#7dc2f0"/>
      <stop offset="1" stop-color="#8a7ee5"/>
    </linearGradient>
    <linearGradient id="linear-gradient-4" x1="1479.45" y1="1696.35" x2="2346.19" y2="802.59" gradientTransform="translate(0 3072) scale(1 -1)" gradientUnits="userSpaceOnUse">
      <stop offset="0" stop-color="#6c7ddc"/>
      <stop offset="1" stop-color="#8433d2"/>
    </linearGradient>
    <linearGradient id="linear-gradient-5" x1="844.45" y1="2362.27" x2="2265.12" y2="765.21" gradientTransform="translate(0 3072) scale(1 -1)" gradientUnits="userSpaceOnUse">
      <stop offset="0" stop-color="#83ddf6"/>
      <stop offset="1" stop-color="#9551df"/>
    </linearGradient>
  </defs>
  <g id="Layer_2-2" data-name="Layer 2">
    <g id="Layer_1-2" data-name="Layer 1-2">
      <g id="Generative_Object" data-name="Generative Object">
        <g>
          <path class="cls-bg" d="M1061.84,3071.32l-1061.84.68V0h3072v3072l-1978.67-.62,4.45-3.62c48.31-5.5,87.74-36.32,110.68-78.68,2.63-4.43,5.05-2.44,8.47.99,48.61,62.37,148.8,39.8,162.3-39.08.73-3.04,2.49-3.79,5.27-2.31,31.46,19.59,69.05,18.49,99.51-2.56,2.61-1.73,4.51-1.16,5.7,1.72,26.48,69.1,104.33,85.4,169.76,63.58,121.21-40.41,206.77-184.49,248.84-298.67,79.91-216.85,76.06-445.08,66.81-664.32,1.95-66.29,10.2-114.99,78-141.82,45.28-11.77,89.93-23.44,135.77-42.89,323.31-143.36,518.61-462.95,549.22-814.62,26.59-305.52-70.49-601.76-312.14-797.62C2187.75,58.43,1860.85,6.54,1567.28,85.36c-293.57,78.82-538.84,304.27-542,613.2l.14,716.16c-4.51,121.03-78.6,230.88-190.24,278.54l-92.79,32.49c-150.07,51.61-274.1,219.71-272.89,378.63.48,62.78,25.4,126.36,89.65,145.45,57.78,17.16,114.6-13.89,143.08-65.04,1.67-2.16,4.23-2.24,6.43-.84,50.98,71.64,153.44,46.21,169.65-36.24,3.93-2.76,7.09-.79,9.46,5.89,56.52,84.1,177.38,40.78,175.38-57.23,1.73-4.47,3.55-3.12,7.28-.21,15.35,17.23,36.81,30.05,60.01,30.22,2.44.17,4.03,1.81,4.21,4.33.23,3.35-22.88,21.7-27.7,25.35-39.22,29.7-83.56,50.57-130.85,64.18l-72.84,21.26c-155.21,50.29-273.06,184.39-296.84,346.43-10.33,70.4,16.56,150.99,89.93,172.71,58.71,17.38,120.05-13.97,147.8-67.3l32.2-61.47c2.78-1.75,4.81-2.77,6.79.27,42.23,92.87,175.2,59.86,177.51-37.21,4.34-2.8,8.54.15,12.6,8.85,64.7,85.8,191.96,20.61,170.36-82.59,3.48-4.74,8.25-2.87,14.31,5.61,17.59,14.33,43.77,26.38,66.45,22.73,2.68.38,3.42,1.87,4.15,4.29,1.99,6.61-51.47,50.65-62.21,57.05-31.3,19.01-62.96,36.52-94.97,52.51-89.72,47.18-205.76,144.96-226.5,249.16-15.5,77.87,34.51,146.31,112.86,155.22l4.14,3.56h0Z"/>
          <g>
            <circle class="cls-35" cx="416.55" cy="1513.29" r="176.94"/>
            <path class="cls-29" d="M379.37,1392.7c19.25-1.44,32.73,12.67,35.16,30.17,2.29,16.46-4.46,30.79-15.74,42.46-14.83,15.35-35.84,22.82-56.57,16.58-17.51-5.27-26.11-22.59-20.47-39.85s15.97-21.71,23.41-33.17c10.42-5.91,21.96-15.27,34.21-16.18h0Z"/>
            <g>
              <path class="cls-18" d="M345.16,1408.89l1.17,3.6c-16.06,14.81-36.71,45.56-11.95,62.33,26.61,18.03,65.76-3.84,75.3-31.97,7.3-21.53-3.17-46.67-27.71-47.25l-2.6-2.9c44.82-15.79,95.3-2.24,127.3,34.14,29.99,34.1,40.39,80.7,27.48,124.29-6.84,23.11-20.12,42.2-37.93,57.96-47.77,42.28-119.7,39.13-164.68-5.77-56.05-55.95-48.57-147.21,13.62-194.45v.02Z"/>
              <circle class="cls-17" cx="331.82" cy="1509.71" r="14.84"/>
            </g>
          </g>
          <g>
            <circle class="cls-12" cx="676.59" cy="1162.16" r="130.72"/>
            <path class="cls-45" d="M644.76,1081.23c8.01-.58,17.16.85,23.82,6.9,7.51,6.83,9.71,18.36,6.56,28.1-5.9,18.26-24.6,30.7-43.28,26.94-16.59-3.34-26.9-19.46-20.44-34.95,5.41-12.97,20.54-21.21,33.35-26.99h0Z"/>
            <g>
              <path class="cls-11" d="M611.42,1108.22l2.1,2.95c-5.84,28.08,26.81,38.03,46.76,21.66,21.2-17.39,17.05-49.29-13.33-48.7l-2.19-2.89c21.92-9.9,47.51-8.49,69.26,3.27,25.41,13.75,41.98,38.39,45.57,67.12,4.63,37.09-13.59,73.62-47.67,89.72-34.03,16.08-73.75,6.14-98.24-22.14-27.35-31.59-28.16-78.49-2.27-110.98h.01Z"/>
              <circle class="cls-38" cx="619.14" cy="1158.63" r="10.32"/>
            </g>
          </g>
          <g>
            <circle class="cls-7" cx="806.58" cy="1431.55" r="83.42"/>
            <path class="cls-41" d="M796.59,1387.73c2.48,1.37,7.17,2.37,9.17,5.47,7.37,11.37,1.31,24.79-10.33,30.75-6.25,3.2-13.2,3.42-18.94-.54-4.96-3.42-7.44-10.21-7.33-16.98,6.42-9.51,16.23-16.21,27.43-18.7h0Z"/>
            <g>
              <path class="cls-10" d="M769.16,1406.43l3.03,1.76c3.62,31.65,46.65,7.06,29.76-14.63-3.95-1.13-5.74-3.08-5.36-5.83,21.01-4.69,42.39,6.2,50.95,25.95s1.89,42.8-15.89,54.93-41.68,9.92-56.94-5.26-17.59-39.06-5.55-56.91h0Z"/>
              <circle class="cls-42" cx="776.91" cy="1435.62" r="5.79"/>
            </g>
          </g>
        </g>
        <g>
          <path class="cls-13" d="M1093.33,3071.38l-31.48-.06c-18.24-2.24-35.7-5.7-52.39-14.48-34.11-17.93-59.73-49.87-67.75-87.87-14.38-68.1,28.42-135.11,71.44-185.72,17.42-20.5,35.59-37.67,56.01-55.25,33.46-28.8,70.35-51.35,109.42-71.85l53.23-27.93c34.23-17.96,64.07-41.63,90.63-69.77l3.02-3.76c.95-1.19-.21-2.79-2.22-2.13-14.87,4.92-55.84-9.49-72.13-28.38l-3.06-3.55c-.66-.76-2.58.07-1.22,2.29,5.32,31.08-1.33,63.68-21.8,87.96-30.73,36.46-82.39,45.88-123.88,22.91-15.3-8.47-26.43-21.66-36.08-36.72-.39-3.42-3.63-.23-1.7,2.08-1.42,21.88-9.27,40.67-22.88,56.9l-1.34,1.6-1.41,1.53-8.34,8.27-1.6,1.36-1.67,1.32-1.72,1.26-1.88,1.25c-25.32,16.87-54.6,23.05-85.4,13.05-24.44-7.94-46.57-27.02-57.31-54.02l-33.03,63.07c-15.1,28.83-38.54,50.69-68.36,63.54-53.01,22.85-113.28,6.21-146.96-40.39-26.2-36.26-34.08-81.41-28.6-125.98,4.52-36.75,13.76-71.15,28.42-105.27,54.02-125.75,157.83-216.05,289.17-253.58l46.77-13.37c29.48-8.43,57.26-18.27,84.45-32.39,27.96-14.52,53.3-31.23,76.09-53.18l3.96-2.89c1.57-1.15-.85-2.12-1.61-1.9-1.6.46-3.14.09-4.43-.04-24.43-2.42-44.77-15.83-60.19-34.23,2.86,61.92-44.78,109.34-104.26,105.88-32-2.19-61.79-20.2-78.25-49.51-.22-.58-1.05-3.54-1.81-3.41-.21.04-11.49,69.27-79.89,79.84-35.85,5.54-70.87-9.79-92.39-38.84-.87-1.17-2.07-3.14-3.18-3.43-.71-.19-1.8,2.2-2.2,2.88-13.01,22.05-30.18,40.08-51.98,52.71-58.16,33.69-130.41,13.69-163.16-45.02-33.71-60.41-23.76-140.24-1.92-205.36,29.94-89.27,87.79-167.5,164.89-221.76,35.86-25.24,75.61-41.59,116.71-55.78l65.96-22.77c73.08-32.12,131.47-89.01,162.6-162.91,16.09-38.2,25.91-78.65,25.9-120.83l-.27-702.94c-.02-52.82,6.41-103.32,21.43-153.72,36.89-123.81,114.43-230.97,214.56-311.9,69.97-56.56,148.28-100.81,232.78-131.52,36.86-13.4,72.83-24.49,111.19-33.11,150.46-33.78,306.6-34.47,457.5-1.7,83.96,18.23,164.28,49.12,239.3,90.56,97.15,53.67,182.82,124.65,253.16,210.19,47.8,58.13,88.66,126.96,117.57,196.31,22.44,53.83,40.08,107.94,51.96,165.2,8.86,42.72,15.54,84.07,19.54,127.63,8.05,87.65,3.94,175.23-9.06,262.46-21.39,143.53-72.04,280.98-150.34,403.09-79.48,123.94-186.74,227.42-314.34,300.41l-47.84,24.52c-32.24,16.52-64.75,30.15-99.82,39.56l-63.88,17.15c-14.23,3.82-25.79,10.81-37.06,20.07-34.58,28.4-42.02,77.36-40.75,121.63l5.21,181.46c.91,87.31-3.94,173.45-16.34,259.79-13.14,91.47-36.94,179.73-72.88,264.66-28.51,67.36-67.42,129.15-118.58,181.34-21.41,21.84-44.59,39.9-70.54,55.54-46.54,28.03-98.8,39.47-150.89,21.44-31.98-11.06-56.29-35.41-67.37-67.52-31.73,23.62-72.62,24.6-104.91,2.68-3.3,28.75-19.35,51.12-43.32,65.67-42.49,25.8-96.88,13.75-126.65-27.3-15.06,28.96-36.36,51.89-64.41,67.04-17.21,9.3-35.4,13.63-54.15,15.96v-.02Z"/>
          <g>
            <path class="cls-9" d="M1110.76,2994.14c-.22-8.42,2.65-16.38,7.05-23.83l31.15-52.88c33.7-57.21,103.25-86.16,163.04-111.43,37.34-15.78,71.62-34.21,105.39-56.6,95.06-63.02,146.57-139.2,197.26-239.21,8.66-17.09,18.19-33.2,30.24-47.52,6.51-7.74,15.07-12.1,25.04-10.15,8.03,1.57,16.29,8.69,18.62,18.81,14.9,64.52,20.01,130.27,13.12,196.45-6.21,59.69-24.47,115.64-54.85,167.02l-30.89,42.67c-1.37,1.9-2.97,6.59-.58,7.6,15.04-4.78,26.86-13.66,38.51-23.95,35.82-31.64,64.27-69.52,87.97-111.41,72.2-127.55,97.27-271.21,86.71-417.19l-14.92-142.43-8.88-88.64c-3.17-55.79-1.4-110.52,10.13-165.21,21.68-102.77,86.79-190.59,180.42-238.05l93.61-47.44c59.81-30.31,112.56-70.15,161.82-115.49l54.04-54.09c52.08-56.69,95.93-118.97,132.52-187.02,76.75-142.74,118.54-314.57,123.24-476.63,2.45-84.53-6.62-167.74-28.32-249.16-15.08-56.59-37.57-109.44-63.38-161.45l-5.93-15.85c31.49,32.88,58.24,68.28,82.68,106.91,33.03,52.23,57.82,107.2,77.21,165.88,18.76,56.77,31.66,113.41,38.67,173.01,9.6,81.64,9.59,162.76-.69,244.55-26.79,213.2-117.44,411.5-274.16,559.57-61.37,57.98-130.1,106.73-206.09,143.25-43.91,21.11-88.52,35.02-135.49,46.27-31.48,7.54-58.8,22.05-82.34,43.66-17.91,16.43-30.46,36.19-40.57,58.46-14.73,32.45-20.28,66.68-20.71,102.65l5.13,171.11.8,95.32c-2.46,61.39-6.45,121.22-15.85,182.15-10.32,66.93-25.03,131.5-48.04,195.08-24.34,67.26-58.49,134.58-105.73,188.35l-35.93,35.92c-33.43,33.42-105.91,69.38-140.1,27.37-7.5-9.22-11.28-22.24-7.84-34.5,2.69-9.58,8-20.74,16.55-26.5,26.51-17.83,47.64-39.93,62.05-68.88,24.23-48.66,41.24-100.01,49.54-153.96,4.58-29.75.99-69.44-26.14-82.99-23.33-11.66-52.04-2.82-65.49,19.72l-35.86,60.07-40.25,52.79-38.93,38.96c-38.42,38.45-104.2,69.81-155.23,90.78l-63.38,29.67c-24.46,11.45-44.79,28.04-65.05,46.01-21.19,18.79-37.39,40.77-52.01,64.83-7.33,12.06-16.7,21.07-28.88,27.58h0Z"/>
            <path class="cls-14" d="M1328.64,1890.29l.02-31.85c.01-17.93-7.95-34.3-19.12-48.1-7.68-9.49-19.33-14.31-31.06-16.85-35.41-7.64-58.79,22.63-79.73,50.43-44.18,58.67-101.4,105.18-169.98,132.62-25.82,10.33-51.93,16.76-79.33,21.14l-77.03,7.1c-79.95,7.37-144.84,24.98-197.1,89.67-14.76,18.27-25.75,38.11-36.95,58.82-6.84,12.64-16.63,21.93-29.7,26.55,1.83-17.41,8.27-32.74,14.18-49.51,34.79-98.77,106.94-156.74,206.43-185.01l94.68-19.34c46.54-9.5,91.73-19.27,134.99-39.02,34.85-15.91,65.85-36.27,94.57-61.44,23.86-20.91,43.45-44.22,62.65-69.31,22.54-29.44,50.33-63.48,89.76-55.99,16.18,3.07,28.38,14.57,35.75,28.61,17.2,32.77,13.48,85.71,2.09,120.35l-11.91,36.2c-.72,2.18-1.51,3.91-3.2,4.91v.02Z"/>
            <path class="cls-26" d="M1501.41,2322.76l.59-19.47c.39-12.95-.36-25.81-3.24-38.63-5.55-24.68-24.21-45.27-49.54-49.48-17.27-2.87-33.49,4.78-46.72,15.38-12.19,9.77-21.05,21.45-30.39,34.22-53.73,73.51-123.65,131.5-206.62,169.69-35.16,16.18-71.6,25.4-109.66,32.73l-80.58,15.51c-49.55,12.27-94.01,36.33-128.54,73.92-19.89,21.65-35.84,45.02-48.74,71.29l-16.76,34.15c-7.21,14.68-21.88,28.84-37.08,33.06l30.92-82.6c15.92-34.73,35.88-66.25,62.25-93.58,36.6-37.93,79.47-64.94,129.01-82.75l112.67-32.86c36.65-10.69,71.83-20.77,107.04-35.25,33.53-13.79,64.95-29.05,95.29-48.69,49.72-32.17,97.14-73.87,122.48-127.91l17.28-36.84c10.23-16.97,28.65-27.01,48.39-22.37,47.05,11.07,39.01,124.31,35.07,170.09l-3.13,20.38h.01Z"/>
            <path class="cls-43" d="M924.68,2379.17l-1.18-3.29c13.58-18.42-1.51-38.72-23.15-32.31l-2.86-2.24,9.68-10.87c1.28-1.39.83-3.83-.56-5.21-1.59-1.58-11.13-.67-19.2,1.73-1.22-1.54.01-2.62.15-3.54,25.11-11.29,50.61-19.13,77.26-26.52,30.99-8.6,60.05-18.06,89.74-30.44,108.82-45.38,186.14-127.66,234.46-234.01l10.71,5.07c3.76,4.11,6.3,3.99,11.48,2.88l13.67,11.62c1.62,1.37,5.66-.06,6.87.96,1.9,1.61,3.05,5.1,1.87,7.67l-9.68,20.99c-30.8,66.78-76.06,124.56-132.52,171.75-32.23,26.94-67.22,48.11-105.39,65.64l-101.51,39.42-49.48,18.08c-3.47,1.27-6.25,3.55-10.34,2.65l-.02-.03Z"/>
            <path class="cls-23" d="M805.76,1857.71l-1.77-2.89c24.47-41.03-6.86-49.38-42.39-36.11l-22.87,10.51-3.54-1.57c-.67-8.03-9.9-7.49-11.35-14.04,23.72-12.82,47.88-22.57,74.08-30.16,70.71-20.49,125.73-46.97,180.06-97.59,25.65-23.9,47.09-50.77,65.21-80.86,4.82,4.44,9.6,1.98,14.79.42,9.41-2.83,18.97,3.6,24.05,10.4,5.93,7.95,6.55,18.87,2.73,28.51-7.1,17.96-16.75,34.09-28.13,49.88-62.57,86.86-149.94,134.63-250.88,163.51h0Z"/>
            <path class="cls-22" d="M1231.34,2778.08l-1.22-3.28c10.62-13.25-3.05-33.01-18.7-27.97-17.32,5.58-32.58,12.67-47.47,23.31l-5.62.14c-4.31-3-12.46,1.93-17.77-4.5,29.12-21.68,59.63-39.06,92.61-55.17,50.07-24.46,96.25-54.13,135.92-93.59,42.52-42.3,74.8-92.49,97.57-147.99,1.25-.69,2.05-1.23,2.87-1.97.27,2.91,1.39,4.1,2.72,4.89,2.31,1.37,2.79-2.2,3.79-2.97,4.57-3.52,11.6-4.85,16.42-6.97.4-1.44,1.69-4.99,3.01-5.01,4.51-.06,3.84,6.5,5.49,8.37,2.68,3.04,8.25-.29,9.39-4.37.98-3.51,2.82-7.06-1.02-8.53-1.41,1.83-5.84,4-7.35,1.42.47-1.76,1.46-4.92.43-6.01-4.7-4.97-11.17,3.09-12.84.86-4.41-5.88,6.1-12.11-1.55-21.63,5.46-.6,4.88,3.56,5.97,5.62,9.08-.02,6.39,8.69,9.83,10.72,1.15.67,3.77-1.32,5.94-.93.6,6.19,2.85,11.98,10,13.17-.67,5.21-1.48,10.9-2.53,15.44l-3.35,14.45c-22.73,62.26-56.94,118.51-100.68,167.92l-22.62,22.64c-27.28,23.48-55.45,44.52-85.98,63.86l-69.11,37.44c-1.23.67-2.97.35-4.15.65h0Z"/>
            <path class="cls-32" d="M805.76,1857.71c-17.18,4.91-34.17,13.53-50.43,22.66-54.8,30.8-93.87,79.32-118.68,135.84-6.65,15.16-26.32,19-38.16,10.53-11.61-8.3-14.55-22.5-9.65-35.79,26.29-71.36,79.21-129.12,146.35-163.31,24.01-12.23,60.87-29.87,76.31-8.77,5.55,7.59,5.6,17.48,1.68,26.37l-7.43,12.46h0Z"/>
            <path class="cls-37" d="M924.68,2379.17c-4.31,4.87-9.6,8.88-15.46,12.06-64.17,34.75-114.68,87.46-141.19,155.61-4.82,12.38-17.97,18.63-29.81,15.56-10.36-2.69-21.84-14.65-19.15-27.41,17.44-82.74,99.06-165.84,178.42-193.66,13.24-4.64,28.24-.96,33.12,13.09,2.9,8.36-.3,18.41-5.92,24.75h0Z"/>
            <path class="cls-30" d="M1231.34,2778.08c-12.12,13.94-74.51,36.96-121.89,110.25-7.64,11.82-22.16,15.79-34.91,10.46-12.02-5.03-15.32-18.6-10.64-30.34,3.47-8.72,8.43-15.9,14.09-23.63,21.96-29.98,49.51-53.91,80.32-74.54,16.55-11.08,32.96-21.3,52.36-26.36,9.39-2.45,19.28,2.34,23.55,9.66s2.88,17.86-2.89,24.49h.01Z"/>
            <g>
              <path class="cls-1" d="M1111.49,2083.36c-30.8-19.89-33.3-64.57-13-80.24l27.97-21.59c11.37-8.78,25.4-11.41,39.06-5.86,25.03,10.17,41.4,36.12,38.06,63.49-2.47,20.21-15.22,38.57-33.25,47.42-19.25,9.45-40.75,8.46-58.83-3.22h-.01Z"/>
              <circle class="cls-44" cx="1146.73" cy="2035.61" r="24.14"/>
            </g>
            <g>
              <path class="cls-28" d="M957.26,2161.89c-33.14-7.15-52.86-39.41-45.82-71.44,3.3-15.03,13.95-26.65,28.16-31.71l35.38-8.21c15.96-1.63,31.6,4.4,41.38,17.16,15.06,19.63,16.05,46.29,3.22,66.99-12.55,20.25-36.99,32.67-62.32,27.21h0Z"/>
              <circle class="cls-5" cx="970.46" cy="2106.99" r="23.66"/>
            </g>
            <g>
              <path class="cls-15" d="M1124.22,2601c-23.51-13.2-34.5-39.42-29.74-64.75,4.14-22.03,32.08-32.98,54.15-39.23,6.42-1.82,12.65-4.5,19.51-3.52,22.15,3.16,38.21,20.28,41.86,41.96,3.93,23.32-3.44,46.34-22.19,60.05-17.97,13.15-42.55,17.31-63.6,5.49h0Z"/>
              <circle class="cls-20" cx="1153.38" cy="2550.85" r="24.22"/>
            </g>
            <g>
              <path class="cls-40" d="M1345.97,2507.72c-22.96,11.58-48.59,8.06-66.12-9.66-16.18-16.36-22.5-42.68-9.66-64.11,7.28-12.15,22.07-17.44,33.01-25.1l15.16-10.63c5.72-4.01,13.33-4.1,20.3-1.77,25.94,8.68,41.71,33.25,40.37,60.55-1.09,22.25-12.71,40.46-33.06,50.73h0Z"/>
              <circle class="cls-46" cx="1322.68" cy="2458.15" r="23.89"/>
            </g>
            <g>
              <path class="cls-28" d="M845.49,2129.47c1.38,26.8-14.62,49.68-37.59,58.12-24.78,9.1-52.55,1.09-67.33-20.79-19.1-28.27-9.23-64.23,20.5-79.84,19.55-10.27,42.13-11.29,61.22.89,13.94,8.9,22.32,24.36,23.21,41.62h0Z"/>
              <circle class="cls-4" cx="788.08" cy="2135.87" r="23.39"/>
            </g>
            <g>
              <path class="cls-1" d="M941.27,2645.93c-26.87-14.18-40.25-51.53-20.33-77.99,21.39-28.4,61.43-36.91,87.86-12.02,15.7,14.79,21.42,37.83,13.17,59.36-12,31.29-49.92,46.89-80.7,30.65h0Z"/>
              <circle class="cls-3" cx="969.09" cy="2597.45" r="23.45"/>
            </g>
            <g>
              <path class="cls-24" d="M1469.07,2917.03c-20.07,17.93-46.1,18.53-67.46,4.36-21.71-14.41-30.37-42.99-15.86-65.62,7.44-11.61,20.2-16.57,32.11-21.99,13.59-6.2,26.06-6.25,39.36.47,12.23,6.18,21.59,14.61,25.97,28.36,6.12,19.2,1.45,40.53-14.12,54.43h0Z"/>
              <path class="cls-31" d="M1453.88,2888.76c-5.63,13.95-22.03,17.39-33.46,9.41-10.64-7.42-12.15-21.45-3.59-30.77,7.39-8.05,18.22-10.04,27.32-5.43,9.39,4.75,14.13,15.87,9.73,26.79Z"/>
            </g>
            <g>
              <path class="cls-1" d="M1300.16,2994.16c-16.72,2.56-29.21-.46-42.18-8.87-19.48-12.64-28.75-39.36-15.57-59.95,8.74-13.66,23.85-22.24,39.51-26.26,29.77-7.64,61.17,13.61,62.46,44.74,1.06,25.46-19.53,46.56-44.22,50.34Z"/>
              <path class="cls-34" d="M1287.98,2968.35c-9.58-1.44-15.93-7.69-18.09-15.03-2.68-9.14,1.58-17.22,9.3-22.69,7.86-5.57,17.63-4.98,25.12.33,7.77,5.51,10.81,15.38,6.75,24.74-3.55,8.21-12.38,14.26-23.08,12.65h0Z"/>
            </g>
            <g>
              <path class="cls-19" d="M1527.69,2827.21c-23.03-12.63-32.11-43.15-16.14-64.67l28.21-27.22c15.98-15.41,46.85-.47,57.02,18.98,14.68,28.08,3.24,61.77-24.71,74.49-15.17,6.9-29.13,6.79-44.38-1.57h0Z"/>
              <path class="cls-2" d="M1548.76,2803.66c-9.38-1.51-14.46-8.3-16.22-15.59-1.87-7.76,1.25-15.6,7.54-21.02,7.5-6.47,17.79-6.64,25.56-1.4,7.96,5.37,10.79,16.06,7.38,24.76-3.63,9.24-13.05,15.06-24.25,13.26h-.01Z"/>
            </g>
            <g>
              <path class="cls-8" d="M2462.88,391.06c116.56,204.2,123.21,450.92,65.03,676.29-59.59,238.99-207.39,451.38-417.33,575.25-44.03,22.57-87.92,45.2-131.66,67.92-141.69,89.28-182.84,228.27-171.2,390.71l23.8,231.04c12.91,173.09-29.4,375.94-149.95,506.02-11.74,12.67-47.99,49.01-66.34,49.44-6.48.15-3.39-8.53-1.83-11.87,93.9-113.18,103.06-262.39,71.74-405.66-2.99-13.68-21.96-19.95-32.75-10.6-11.73,10.18-21.42,26.9-29.19,40.79-39.22,79.03-84.78,154.27-152.37,212.37-58.82,50.56-127.1,84.65-198.09,113.48-44.07,20.07-88.74,44.57-116.62,85.44-14.37,22.88-27.8,46.16-40.29,69.84-.63,5.02-2.32,9.23-5.06,12.62-25.95,13.86-59,10.98-79.51-11.37-14.52-15.83-18.22-38.32-14.11-59.06,3.46-17.45,10.71-32.55,20.04-47.79,26.74-43.69,62.44-79.66,103.36-110.13.99-.63,2.09-1.01,3.27-.93,1.53.1,13.08,1.58,13.74,1.83.85.32.81,2.3.76,3.6l-4.61,6.78c-29.04,21.87-78.83,61.04-88.37,97.08-5.78,21.82,23.47,31.43,37.58,17.37,29.63-46.01,70.56-80.81,116.97-108.12,3.71-3.72,7.53-5.49,11.46-5.32l6.71-5.45c75.28-37.96,147.9-84.4,199.77-153.94,30.3-40.61,49.37-78.06,69.48-124.15,2.07-4.74,10.34-32.26,9.11-36.37-.15-.5-1.47-.97-1.95-.77-1.72,12.51-15.48,18.08-18.32,3.2-.49,1.95-1.49,3.38-3,4.27l-13.32,5.21c-4.15,6.1-13.14,6.63-11.73-1.27.1-.55,4.87,3.38-1.44.22,19.28-46.98,30.2-95.8,34.76-146.27,2.34-31.19,4.22-64.58,3.05-96.34-1.1-29.76-4.48-92.22-44.71-92.26-14.8-.02-26.26,8.13-34.66,19.8-23.04,53.97-51.21,97.61-99.1,136.84-61.39,50.29-135.7,82.79-211.55,105.24l-147.16,43.01c-84.59,29.69-153.5,92.49-189.47,174.68l-29.02,77.51-4.65,3.9c-15.41,4.27-32.32.84-44.66-10.7-24.64-23.04-27.7-65.16-21.13-98.37,22.96-116.04,101.42-214.14,209.21-262.64l1.95,1.09c22.36-9.82,30.19,6.73,7.98,16.8l-4.06,4.68c-80.24,32.89-151.25,104.83-171.57,190.36-4.56,19.2,30.51,35.51,42.16,12,26.93-70.98,81.13-127.05,147.85-162.2,4.16-4.21,8.43-6.54,12.81-7l9.24-5.44c50.27-18.33,100.56-37.49,150.89-57.46,86.86-39.05,160.49-105.57,210.13-186.74,11.87-19.42,28.81-48.82,36.08-70.47,1.12-3.34-1.83-4.2-4.58-3.47-5.65-2.86-10.86-6.72-15.64-11.58-4,.32-6.24-.11-9.89-1.52-2.38-.92-13.29-7.19-11.9-10.02l14.31-36.25c11.84-34.82,19.87-70.22,25.32-105.92,1.47-4.5,2.48-9.15,3.02-13.97,18.25-43.05,35.71-140.75-13.26-168.33-34.53-19.45-67.16,9.99-88.19,35.23-66.11,96.45-163.33,160.74-279.59,180.24l-120.6,24.75c-112.97,28.29-194.68,114.19-217.81,227.57l-3.54,4.05c-22.75,8.04-46.99-1.66-57.43-23.7-7.95-16.79-11.26-34.3-10.72-53.23.68-23.99,3.77-46.83,10.53-69.91,26.87-91.67,88.73-173.94,172.79-219.36,5.06.78,17.34,8.86,11.35,14.04l-5.24,6.14c-60.69,32.83-121.39,96.35-139.85,163.8-7.14,26.1,28.84,42.93,42.92,19.22,30.08-71.41,91.79-136.66,166.66-160.36.85-.27,1.84-.09,2.9.13s2.14.66,3.18,1.14l3.81-3.19c112-34.04,223.58-100.51,272.4-211.29,9.08-20.6-9.93-42.95-30.9-32.84-4.45.16-8.61.06-7.88-5.4,35.01-58.16,55.57-124.79,55.64-193.51l.25-267.78c-.81-128.92-1.05-262.55.25-391.45l.08-77.44c7.98-159.09,105.35-301.78,231.48-393.91,125.89-91.96,274.21-138.15,428.59-150.52l96.07-2.85c45.98,1.4,90.31,5.25,135.54,12.93,95.11,16.15,186.07,47.01,270.47,93.73,79.22,43.84,139.14,91.92,201.33,156.86l-.02-.02Z"/>
              <g>
                <path class="cls-27" d="M1099.07,1143.72c-.47-1.25-1.08-1.89-1.08-3.98v-384.97c0-2.09.6-2.72,1.33-2.49l-.25,391.45h0Z"/>
                <path class="cls-25" d="M1295.3,611.76c-36.01.98-64.79-34.79-57.29-70.01,8.54-40.11,41.5-89.71,69.31-120.96l41.2-41.3c49.58-43.92,124.28-89.62,189.04-103.38,20.23-4.3,40.48,1.52,54.17,15.5,14.15,14.45,19.63,35.5,13.98,55.81-5.77,20.72-22.66,33.33-41.69,42.15l-58.44,27.09c-30.15,16.81-56.62,37.08-82.11,60.3-33.44,30.47-58.45,66.52-79.83,106.04-9.88,18.26-29.2,28.24-48.34,28.76h0Z"/>
                <circle class="cls-36" cx="2307.7" cy="533.76" r="84.32"/>
                <path class="cls-21" d="M2400.45,715.69l-.05-18.44c4.71-28.93,30.83-49.42,60.05-47.1s51.78,26.67,51.87,55.98-22.33,53.8-51.54,56.29-55.45-17.83-60.33-46.74h0Z"/>
                <circle class="cls-25" cx="1251.98" cy="723.79" r="46.07"/>
                <path class="cls-6" d="M2400.45,715.69c-1.03-6.1-1.05-12.33-.05-18.44l.05,18.44Z"/>
                <g>
                  <path class="cls-16" d="M2003,1444.91c-130.94,26-259.4-21.82-348.43-119.15-50.31-55-84.65-123-100.5-195.97-18.19-83.77-9.58-168.79,22.93-247.9,49.23-119.77,154.01-214.35,281.61-242.54,101.37-22.39,206.76-.06,291.94,58.72,53.01,36.58,97.13,85.13,127.68,142.09,87.75,163.6,56.29,365.86-74.72,496.37-54.97,54.76-124.23,93.24-200.51,108.38Z"/>
                  <g>
                    <path class="cls-39" d="M2113.44,1308.25c-103.57,77.72-243.13,80.07-348.63,5.82-65.68-46.23-111.63-115.42-130.92-194.08-12.41-50.62-13.46-101.53-1.92-152.24,16.45-72.22,54.01-135.88,110.55-183.8,88.27-74.81,206.8-94.04,313.82-47.16,58.89,25.8,107.26,69.5,141.63,123.67,92.51,145.81,54.03,343.81-84.54,447.8h.01Z"/>
                    <g>
                      <circle class="cls-33" cx="1935.21" cy="1034.84" r="209.67" transform="translate(-164.9325 1671.4977) rotate(-45)"/>
                      <circle class="cls-39" cx="2013.18" cy="950.6" r="53.37"/>
                    </g>
                  </g>
                </g>
              </g>
            </g>
          </g>
        </g>
      </g>
    </g>
  </g>
</svg>